<svg width="43" height="54" viewBox="0 0 43 54" fill="none" xmlns="http://www.w3.org/2000/svg">
    <path d="M42.9741 44.5302L40.5525 14.1437C40.4022 12.1859 38.7387 10.6529 36.7671 10.6529H31.9832V17.7105C31.9832 18.5845 31.2726 19.292 30.3948 19.292C29.5181 19.292 28.8065 18.5845 28.8065 17.7105V10.6529H14.1943V17.7105C14.1943 18.5845 13.4827 19.292 12.6059 19.292C11.7281 19.292 11.0176 18.5845 11.0176 17.7105V10.6529H6.23367C4.26211 10.6529 2.59858 12.1859 2.44828 14.1395L0.025594 44.5344C-0.161785 46.9688 0.686345 49.3916 2.35189 51.1819C4.01754 52.972 6.37879 54 8.83007 54H34.1708C36.6221 54 38.9833 52.972 40.649 51.1818C42.3145 49.3915 43.1627 46.9687 42.9741 44.5302ZM28.6562 29.0559L20.4415 37.2353C20.2942 37.3825 20.1191 37.4992 19.9263 37.5788C19.7335 37.6585 19.5268 37.6993 19.3181 37.6992C19.1094 37.6994 18.9027 37.6585 18.7099 37.5789C18.5171 37.4993 18.342 37.3825 18.1947 37.2353L14.3447 33.4018C13.7242 32.784 13.7242 31.7834 14.3447 31.1656C14.9652 30.5478 15.9711 30.5478 16.5906 31.1656L19.3182 33.8805L26.4104 26.8187C27.0299 26.2019 28.0358 26.2019 28.6563 26.8187C29.2767 27.4365 29.2767 28.4381 28.6562 29.0559ZM21.5004 0C15.7201 0 11.0177 4.68323 11.0177 10.4388V10.6528H14.1944V10.4388C14.1944 6.42705 17.4715 3.1629 21.5005 3.1629C25.5296 3.1629 28.8067 6.42705 28.8067 10.4388V10.6528H31.9833V10.4388C31.9832 4.68323 27.2808 0 21.5004 0Z" fill="white"/>
</svg>
