<svg width="24" height="32" viewBox="0 0 24 32" fill="none" xmlns="http://www.w3.org/2000/svg">
    <path fill-rule="evenodd" clip-rule="evenodd"
        d="M2.75 12C2.75 6.89137 6.89137 2.75 12 2.75C17.1086 2.75 21.25 6.89137 21.25 12C21.25 14.2737 20.4297 16.3558 19.0688 17.9664C18.7065 17.2871 18.1308 16.6774 17.3885 16.1778L17.3868 16.1767C15.8771 15.1666 13.9231 14.6851 12.0073 14.6851C10.0912 14.6851 8.13335 15.1666 6.61479 16.1753L6.61479 16.1753L6.61106 16.1778C5.86882 16.6773 5.29322 17.2869 4.9309 17.9661C3.57022 16.3555 2.75 14.2735 2.75 12ZM14.5039 20.9071C13.7075 21.1305 12.8677 21.25 12 21.25C11.0302 21.25 10.0952 21.1008 9.21685 20.824C8.05515 20.4572 6.99315 19.8663 6.07814 19.1001C6.2459 18.5359 6.67641 17.9423 7.44661 17.4236C8.66786 16.613 10.3192 16.1851 12.0073 16.1851C13.696 16.1851 15.3416 16.6134 16.5519 17.4228C17.3227 17.9418 17.7536 18.5357 17.9214 19.1001C16.9337 19.9272 15.7747 20.55 14.5039 20.9071ZM13.7038 22.6157C13.1489 22.7041 12.5798 22.75 12 22.75C6.06294 22.75 1.25 17.9371 1.25 12C1.25 6.06294 6.06294 1.25 12 1.25C17.9371 1.25 22.75 6.06294 22.75 12C22.75 17.2908 18.9279 21.6888 13.8942 22.5837C13.8309 22.5949 13.7674 22.6056 13.7038 22.6157ZM11.9997 6.97998C10.5954 6.97998 9.46973 8.1127 9.46973 9.50998C9.46973 10.8588 10.5234 11.9585 11.8584 12.0284C11.9504 12.0209 12.0484 12.0202 12.1437 12.0282C13.473 11.9572 14.521 10.8618 14.5297 9.50786C14.5286 8.11305 13.3948 6.97998 11.9997 6.97998ZM7.96973 9.50998C7.96973 7.28726 9.76402 5.47998 11.9997 5.47998C14.2239 5.47998 16.0297 7.28577 16.0297 9.50998V9.51422H16.0297C16.0175 11.6826 14.3119 13.4557 12.1453 13.5295C12.1013 13.531 12.0572 13.5287 12.0137 13.5224C12.018 13.5231 12.0188 13.523 12.016 13.5228C12.0135 13.5227 12.0092 13.5225 12.0035 13.5225C11.9912 13.5225 11.9798 13.5233 11.9728 13.5242C11.9334 13.5291 11.8938 13.5309 11.8542 13.5295C9.69133 13.4558 7.96973 11.6854 7.96973 9.50998Z"
        fill="#F4B459" />
    <circle cx="12" cy="30" r="2" fill="#F4B459" />
</svg>
