<svg width="24" height="32" viewBox="0 0 24 32" fill="none" xmlns="http://www.w3.org/2000/svg">
    <circle cx="12" cy="30" r="2" fill="#F4B459" />
    <path fill-rule="evenodd" clip-rule="evenodd"
        d="M11.6324 2.77661C13.8655 2.55996 15.75 4.31676 15.75 6.51011V7.2501H8.24996V6.70011C8.24996 4.79256 9.8082 2.94687 11.6297 2.77687L11.6324 2.77661ZM6.74996 7.31206V6.70011C6.74996 4.10811 8.81102 1.53423 11.4889 1.28348C14.6152 0.980976 17.25 3.44391 17.25 6.51011V7.31207C18.805 7.47751 19.9181 7.97525 20.6264 8.81733C21.5046 9.8615 21.5869 11.2338 21.4454 12.5126L21.4442 12.5231L21.4441 12.5231L20.6949 18.5168C20.5844 19.543 20.3254 20.667 19.4095 21.5038C18.4984 22.3362 17.0868 22.7501 14.9999 22.7501H8.99991C6.91306 22.7501 5.50144 22.3362 4.5903 21.5038C3.67435 20.667 3.41545 19.543 3.3049 18.5167L2.5557 12.5231L2.55439 12.5126L2.55446 12.5126C2.41296 11.2338 2.49518 9.8615 3.37345 8.81733C4.08175 7.97523 5.1949 7.47749 6.74996 7.31206ZM4.79412 18.3371L4.04479 12.3424C3.91726 11.1839 4.05034 10.3429 4.52137 9.78287C4.98596 9.23053 5.95295 8.7501 7.99991 8.7501H15.9999C18.0469 8.7501 19.0139 9.23053 19.4784 9.78288C19.9495 10.3429 20.0826 11.1838 19.955 12.3423L19.2057 18.3371L19.2056 18.3371L19.2042 18.3502C19.1043 19.2821 18.8974 19.94 18.3978 20.3964C17.8914 20.859 16.9331 21.2501 14.9999 21.2501H8.99991C7.06676 21.2501 6.10838 20.859 5.60202 20.3964C5.10246 19.94 4.89549 19.2821 4.79564 18.3502L4.79576 18.3502L4.79412 18.3371ZM14.4954 12.0001C14.4954 11.4478 14.9432 11.0001 15.4954 11.0001H15.5044C16.0567 11.0001 16.5044 11.4478 16.5044 12.0001C16.5044 12.5524 16.0567 13.0001 15.5044 13.0001H15.4954C14.9432 13.0001 14.4954 12.5524 14.4954 12.0001ZM8.49447 11.0001C7.94218 11.0001 7.49447 11.4478 7.49447 12.0001C7.49447 12.5524 7.94218 13.0001 8.49447 13.0001H8.50345C9.05573 13.0001 9.50345 12.5524 9.50345 12.0001C9.50345 11.4478 9.05573 11.0001 8.50345 11.0001H8.49447Z"
        fill="#F4B459" />
</svg>
