<svg width="24" height="32" viewBox="0 0 24 32" fill="none" xmlns="http://www.w3.org/2000/svg">
    <g clip-path="url(#clip0_0_1)">
        <path
            d="M22.683 9.394L20.803 9.155C20.6497 8.68276 20.4595 8.22334 20.234 7.781L21.395 6.286C21.6218 5.99897 21.7348 5.63834 21.7123 5.27318C21.6898 4.90802 21.5334 4.564 21.273 4.307L19.698 2.732C19.4409 2.47005 19.0961 2.31222 18.7298 2.28879C18.3635 2.26535 18.0014 2.37795 17.713 2.605L16.22 3.766C15.7774 3.54036 15.3176 3.3501 14.845 3.197L14.606 1.32C14.5625 0.956364 14.3873 0.621267 14.1135 0.378048C13.8397 0.134829 13.4862 0.000339105 13.12 0L10.88 0C10.123 0 9.484 0.567 9.394 1.317L9.155 3.197C8.68221 3.34966 8.22241 3.53994 7.78 3.766L6.286 2.605C5.99879 2.37858 5.63825 2.26586 5.27322 2.28836C4.90819 2.31087 4.56422 2.46702 4.307 2.727L2.732 4.301C2.46977 4.55818 2.31178 4.90315 2.28834 5.26969C2.2649 5.63623 2.37767 5.99852 2.605 6.287L3.766 7.781C3.54011 8.22315 3.34984 8.6826 3.197 9.155L1.32 9.394C0.567 9.484 0 10.123 0 10.88V13.12C0 13.877 0.567 14.516 1.317 14.606L3.197 14.845C3.352 15.322 3.543 15.782 3.766 16.219L2.605 17.714C2.37816 18.001 2.26517 18.3617 2.28768 18.7268C2.31019 19.092 2.46662 19.436 2.727 19.693L4.302 21.268C4.55948 21.5294 4.90426 21.6868 5.27044 21.71C5.63662 21.7333 5.99853 21.6208 6.287 21.394L7.781 20.233C8.218 20.457 8.678 20.648 9.155 20.802L9.394 22.678C9.484 23.433 10.123 24 10.88 24H13.12C13.877 24 14.516 23.433 14.606 22.683L14.845 20.803C15.3172 20.6497 15.7767 20.4595 16.219 20.234L17.714 21.395C18.319 21.865 19.173 21.81 19.693 21.273L21.268 19.698C21.53 19.4409 21.6878 19.0961 21.7112 18.7298C21.7346 18.3635 21.622 18.0014 21.395 17.713L20.234 16.219C20.458 15.782 20.649 15.322 20.803 14.845L22.679 14.606C23.0426 14.5625 23.3777 14.3873 23.621 14.1135C23.8642 13.8397 23.9987 13.4862 23.999 13.12V10.88C23.9992 10.5143 23.8654 10.1611 23.623 9.8873C23.3805 9.6135 23.0461 9.43801 22.683 9.394ZM12 17C9.243 17 7 14.757 7 12C7 9.243 9.243 7 12 7C14.757 7 17 9.243 17 12C17 14.757 14.757 17 12 17Z"
            fill="#F4B459" />
    </g>
    <circle cx="12" cy="30" r="2" fill="#F4B459" />
    <defs>
        <clipPath id="clip0_0_1">
            <rect width="24" height="24" fill="white" />
        </clipPath>
    </defs>
</svg>
