<svg width="344" height="116" viewBox="0 0 344 116" fill="none" xmlns="http://www.w3.org/2000/svg">
    <g clip-path="url(#clip0_22_332)">
        <rect width="344" height="116" rx="12" fill="url(#paint0_linear_22_332)" />
        <circle cx="341" cy="12" r="46" fill="#FA839B" />
        <circle cx="16" cy="101" r="34" fill="#FF6E8B" />
        <circle cx="49.5" cy="65.5" r="8.5" fill="#FF6E8B" />
        <circle cx="292" cy="50" r="11" fill="#FA839B" />
        <path
            d="M104.668 94L99.8258 88.402V94H97.7738V81.49H99.8258V87.196L104.686 81.49H107.26L101.824 87.754L107.35 94H104.668ZM118.146 84.082V94H116.094V92.83C115.77 93.238 115.344 93.562 114.816 93.802C114.3 94.03 113.748 94.144 113.16 94.144C112.38 94.144 111.678 93.982 111.054 93.658C110.442 93.334 109.956 92.854 109.596 92.218C109.248 91.582 109.074 90.814 109.074 89.914V84.082H111.108V89.608C111.108 90.496 111.33 91.18 111.774 91.66C112.218 92.128 112.824 92.362 113.592 92.362C114.36 92.362 114.966 92.128 115.41 91.66C115.866 91.18 116.094 90.496 116.094 89.608V84.082H118.146ZM125.858 83.92C126.638 83.92 127.334 84.082 127.946 84.406C128.57 84.73 129.056 85.21 129.404 85.846C129.752 86.482 129.926 87.25 129.926 88.15V94H127.892V88.456C127.892 87.568 127.67 86.89 127.226 86.422C126.782 85.942 126.176 85.702 125.408 85.702C124.64 85.702 124.028 85.942 123.572 86.422C123.128 86.89 122.906 87.568 122.906 88.456V94H120.854V84.082H122.906V85.216C123.242 84.808 123.668 84.49 124.184 84.262C124.712 84.034 125.27 83.92 125.858 83.92ZM137.547 83.92C138.327 83.92 139.023 84.082 139.635 84.406C140.259 84.73 140.745 85.21 141.093 85.846C141.441 86.482 141.615 87.25 141.615 88.15V94H139.581V88.456C139.581 87.568 139.359 86.89 138.915 86.422C138.471 85.942 137.865 85.702 137.097 85.702C136.329 85.702 135.717 85.942 135.261 86.422C134.817 86.89 134.595 87.568 134.595 88.456V94H132.543V84.082H134.595V85.216C134.931 84.808 135.357 84.49 135.873 84.262C136.401 84.034 136.959 83.92 137.547 83.92ZM145.277 82.768C144.905 82.768 144.593 82.642 144.341 82.39C144.089 82.138 143.963 81.826 143.963 81.454C143.963 81.082 144.089 80.77 144.341 80.518C144.593 80.266 144.905 80.14 145.277 80.14C145.637 80.14 145.943 80.266 146.195 80.518C146.447 80.77 146.573 81.082 146.573 81.454C146.573 81.826 146.447 82.138 146.195 82.39C145.943 82.642 145.637 82.768 145.277 82.768ZM146.285 84.082V94H144.233V84.082H146.285ZM162.583 84.082L156.499 98.662H154.375L156.391 93.838L152.485 84.082H154.771L157.561 91.642L160.459 84.082H162.583ZM163.447 88.996C163.447 88 163.651 87.118 164.059 86.35C164.479 85.582 165.043 84.988 165.751 84.568C166.471 84.136 167.263 83.92 168.127 83.92C168.907 83.92 169.585 84.076 170.161 84.388C170.749 84.688 171.217 85.066 171.565 85.522V84.082H173.635V94H171.565V92.524C171.217 92.992 170.743 93.382 170.143 93.694C169.543 94.006 168.859 94.162 168.091 94.162C167.239 94.162 166.459 93.946 165.751 93.514C165.043 93.07 164.479 92.458 164.059 91.678C163.651 90.886 163.447 89.992 163.447 88.996ZM171.565 89.032C171.565 88.348 171.421 87.754 171.133 87.25C170.857 86.746 170.491 86.362 170.035 86.098C169.579 85.834 169.087 85.702 168.559 85.702C168.031 85.702 167.539 85.834 167.083 86.098C166.627 86.35 166.255 86.728 165.967 87.232C165.691 87.724 165.553 88.312 165.553 88.996C165.553 89.68 165.691 90.28 165.967 90.796C166.255 91.312 166.627 91.708 167.083 91.984C167.551 92.248 168.043 92.38 168.559 92.38C169.087 92.38 169.579 92.248 170.035 91.984C170.491 91.72 170.857 91.336 171.133 90.832C171.421 90.316 171.565 89.716 171.565 89.032ZM180.254 89.05L184.826 94H182.054L178.382 89.734V94H176.33V80.68H178.382V88.42L181.982 84.082H184.826L180.254 89.05ZM195.279 84.082V94H193.227V92.83C192.903 93.238 192.477 93.562 191.949 93.802C191.433 94.03 190.881 94.144 190.293 94.144C189.513 94.144 188.811 93.982 188.187 93.658C187.575 93.334 187.089 92.854 186.729 92.218C186.381 91.582 186.207 90.814 186.207 89.914V84.082H188.241V89.608C188.241 90.496 188.463 91.18 188.907 91.66C189.351 92.128 189.957 92.362 190.725 92.362C191.493 92.362 192.099 92.128 192.543 91.66C192.999 91.18 193.227 90.496 193.227 89.608V84.082H195.279ZM202.991 83.92C203.771 83.92 204.467 84.082 205.079 84.406C205.703 84.73 206.189 85.21 206.537 85.846C206.885 86.482 207.059 87.25 207.059 88.15V94H205.025V88.456C205.025 87.568 204.803 86.89 204.359 86.422C203.915 85.942 203.309 85.702 202.541 85.702C201.773 85.702 201.161 85.942 200.705 86.422C200.261 86.89 200.039 87.568 200.039 88.456V94H197.987V84.082H200.039V85.216C200.375 84.808 200.801 84.49 201.317 84.262C201.845 84.034 202.403 83.92 202.991 83.92ZM211.728 80.68V94H209.676V80.68H211.728ZM213.738 88.996C213.738 88 213.942 87.118 214.35 86.35C214.77 85.582 215.334 84.988 216.042 84.568C216.762 84.136 217.554 83.92 218.418 83.92C219.198 83.92 219.876 84.076 220.452 84.388C221.04 84.688 221.508 85.066 221.856 85.522V84.082H223.926V94H221.856V92.524C221.508 92.992 221.034 93.382 220.434 93.694C219.834 94.006 219.15 94.162 218.382 94.162C217.53 94.162 216.75 93.946 216.042 93.514C215.334 93.07 214.77 92.458 214.35 91.678C213.942 90.886 213.738 89.992 213.738 88.996ZM221.856 89.032C221.856 88.348 221.712 87.754 221.424 87.25C221.148 86.746 220.782 86.362 220.326 86.098C219.87 85.834 219.378 85.702 218.85 85.702C218.322 85.702 217.83 85.834 217.374 86.098C216.918 86.35 216.546 86.728 216.258 87.232C215.982 87.724 215.844 88.312 215.844 88.996C215.844 89.68 215.982 90.28 216.258 90.796C216.546 91.312 216.918 91.708 217.374 91.984C217.842 92.248 218.334 92.38 218.85 92.38C219.378 92.38 219.87 92.248 220.326 91.984C220.782 91.72 221.148 91.336 221.424 90.832C221.712 90.316 221.856 89.716 221.856 89.032ZM230.221 94.162C229.441 94.162 228.739 94.024 228.115 93.748C227.503 93.46 227.017 93.076 226.657 92.596C226.297 92.104 226.105 91.558 226.081 90.958H228.205C228.241 91.378 228.439 91.732 228.799 92.02C229.171 92.296 229.633 92.434 230.185 92.434C230.761 92.434 231.205 92.326 231.517 92.11C231.841 91.882 232.003 91.594 232.003 91.246C232.003 90.874 231.823 90.598 231.463 90.418C231.115 90.238 230.557 90.04 229.789 89.824C229.045 89.62 228.439 89.422 227.971 89.23C227.503 89.038 227.095 88.744 226.747 88.348C226.411 87.952 226.243 87.43 226.243 86.782C226.243 86.254 226.399 85.774 226.711 85.342C227.023 84.898 227.467 84.55 228.043 84.298C228.631 84.046 229.303 83.92 230.059 83.92C231.187 83.92 232.093 84.208 232.777 84.784C233.473 85.348 233.845 86.122 233.893 87.106H231.841C231.805 86.662 231.625 86.308 231.301 86.044C230.977 85.78 230.539 85.648 229.987 85.648C229.447 85.648 229.033 85.75 228.745 85.954C228.457 86.158 228.313 86.428 228.313 86.764C228.313 87.028 228.409 87.25 228.601 87.43C228.793 87.61 229.027 87.754 229.303 87.862C229.579 87.958 229.987 88.084 230.527 88.24C231.247 88.432 231.835 88.63 232.291 88.834C232.759 89.026 233.161 89.314 233.497 89.698C233.833 90.082 234.007 90.592 234.019 91.228C234.019 91.792 233.863 92.296 233.551 92.74C233.239 93.184 232.795 93.532 232.219 93.784C231.655 94.036 230.989 94.162 230.221 94.162ZM241.367 83.92C242.123 83.92 242.795 84.082 243.383 84.406C243.983 84.73 244.451 85.21 244.787 85.846C245.135 86.482 245.309 87.25 245.309 88.15V94H243.275V88.456C243.275 87.568 243.053 86.89 242.609 86.422C242.165 85.942 241.559 85.702 240.791 85.702C240.023 85.702 239.411 85.942 238.955 86.422C238.511 86.89 238.289 87.568 238.289 88.456V94H236.237V80.68H238.289V85.234C238.637 84.814 239.075 84.49 239.603 84.262C240.143 84.034 240.731 83.92 241.367 83.92Z"
            fill="white" />
        <path
            d="M163.312 18.0273V42.3065H191L184.02 30.1669L191 18.0273H163.312ZM153.454 15H160.155V58.152H153.454V15ZM165.094 61.3161H148.535V65.8359H145V69H168.629V65.8359H165.094V61.3161Z"
            fill="white" />
    </g>
    <defs>
        <linearGradient id="paint0_linear_22_332" x1="344" y1="0" x2="182.778" y2="239.196"
            gradientUnits="userSpaceOnUse">
            <stop stop-color="#FE5376" stop-opacity="0.75" />
            <stop offset="1" stop-color="#FE5376" />
        </linearGradient>
        <clipPath id="clip0_22_332">
            <rect width="344" height="116" rx="12" fill="white" />
        </clipPath>
    </defs>
</svg>
