<svg width="344" height="116" viewBox="0 0 344 116" fill="none" xmlns="http://www.w3.org/2000/svg">
    <g clip-path="url(#clip0_21_275)">
        <rect width="344" height="116" rx="12" fill="url(#paint0_linear_21_275)" />
        <circle cx="331" cy="108" r="46" fill="#33F427" />
        <circle cx="10" cy="14" r="23" fill="#32EE26" />
        <circle cx="36.5" cy="38.5" r="8.5" fill="#32EE26" />
        <circle cx="342" cy="48" r="11" fill="#33F427" />
        <path
            d="M120.718 81.49L116.578 89.464V94H114.526V89.464L110.368 81.49H112.654L115.552 87.628L118.45 81.49H120.718ZM121.662 88.996C121.662 88 121.866 87.118 122.274 86.35C122.694 85.582 123.258 84.988 123.966 84.568C124.686 84.136 125.478 83.92 126.342 83.92C127.122 83.92 127.8 84.076 128.376 84.388C128.964 84.688 129.432 85.066 129.78 85.522V84.082H131.85V94H129.78V92.524C129.432 92.992 128.958 93.382 128.358 93.694C127.758 94.006 127.074 94.162 126.306 94.162C125.454 94.162 124.674 93.946 123.966 93.514C123.258 93.07 122.694 92.458 122.274 91.678C121.866 90.886 121.662 89.992 121.662 88.996ZM129.78 89.032C129.78 88.348 129.636 87.754 129.348 87.25C129.072 86.746 128.706 86.362 128.25 86.098C127.794 85.834 127.302 85.702 126.774 85.702C126.246 85.702 125.754 85.834 125.298 86.098C124.842 86.35 124.47 86.728 124.182 87.232C123.906 87.724 123.768 88.312 123.768 88.996C123.768 89.68 123.906 90.28 124.182 90.796C124.47 91.312 124.842 91.708 125.298 91.984C125.766 92.248 126.258 92.38 126.774 92.38C127.302 92.38 127.794 92.248 128.25 91.984C128.706 91.72 129.072 91.336 129.348 90.832C129.636 90.316 129.78 89.716 129.78 89.032ZM139.549 83.92C140.329 83.92 141.025 84.082 141.637 84.406C142.261 84.73 142.747 85.21 143.095 85.846C143.443 86.482 143.617 87.25 143.617 88.15V94H141.583V88.456C141.583 87.568 141.361 86.89 140.917 86.422C140.473 85.942 139.867 85.702 139.099 85.702C138.331 85.702 137.719 85.942 137.263 86.422C136.819 86.89 136.597 87.568 136.597 88.456V94H134.545V84.082H136.597V85.216C136.933 84.808 137.359 84.49 137.875 84.262C138.403 84.034 138.961 83.92 139.549 83.92ZM150.231 83.92C150.999 83.92 151.677 84.076 152.265 84.388C152.865 84.688 153.333 85.066 153.669 85.522V84.082H155.739V94.162C155.739 95.074 155.547 95.884 155.163 96.592C154.779 97.312 154.221 97.876 153.489 98.284C152.769 98.692 151.905 98.896 150.897 98.896C149.553 98.896 148.437 98.578 147.549 97.942C146.661 97.318 146.157 96.466 146.037 95.386H148.071C148.227 95.902 148.557 96.316 149.061 96.628C149.577 96.952 150.189 97.114 150.897 97.114C151.725 97.114 152.391 96.862 152.895 96.358C153.411 95.854 153.669 95.122 153.669 94.162V92.506C153.321 92.974 152.847 93.37 152.247 93.694C151.659 94.006 150.987 94.162 150.231 94.162C149.367 94.162 148.575 93.946 147.855 93.514C147.147 93.07 146.583 92.458 146.163 91.678C145.755 90.886 145.551 89.992 145.551 88.996C145.551 88 145.755 87.118 146.163 86.35C146.583 85.582 147.147 84.988 147.855 84.568C148.575 84.136 149.367 83.92 150.231 83.92ZM153.669 89.032C153.669 88.348 153.525 87.754 153.237 87.25C152.961 86.746 152.595 86.362 152.139 86.098C151.683 85.834 151.191 85.702 150.663 85.702C150.135 85.702 149.643 85.834 149.187 86.098C148.731 86.35 148.359 86.728 148.071 87.232C147.795 87.724 147.657 88.312 147.657 88.996C147.657 89.68 147.795 90.28 148.071 90.796C148.359 91.312 148.731 91.708 149.187 91.984C149.655 92.248 150.147 92.38 150.663 92.38C151.191 92.38 151.683 92.248 152.139 91.984C152.595 91.72 152.961 91.336 153.237 90.832C153.525 90.316 153.669 89.716 153.669 89.032ZM159.478 82.768C159.106 82.768 158.794 82.642 158.542 82.39C158.29 82.138 158.164 81.826 158.164 81.454C158.164 81.082 158.29 80.77 158.542 80.518C158.794 80.266 159.106 80.14 159.478 80.14C159.838 80.14 160.144 80.266 160.396 80.518C160.648 80.77 160.774 81.082 160.774 81.454C160.774 81.826 160.648 82.138 160.396 82.39C160.144 82.642 159.838 82.768 159.478 82.768ZM160.486 84.082V94H158.434V84.082H160.486ZM169.908 85.558C170.256 85.078 170.73 84.688 171.33 84.388C171.942 84.076 172.62 83.92 173.364 83.92C174.24 83.92 175.032 84.13 175.74 84.55C176.448 84.97 177.006 85.57 177.414 86.35C177.822 87.118 178.026 88 178.026 88.996C178.026 89.992 177.822 90.886 177.414 91.678C177.006 92.458 176.442 93.07 175.722 93.514C175.014 93.946 174.228 94.162 173.364 94.162C172.596 94.162 171.912 94.012 171.312 93.712C170.724 93.412 170.256 93.028 169.908 92.56V94H167.856V80.68H169.908V85.558ZM175.938 88.996C175.938 88.312 175.794 87.724 175.506 87.232C175.23 86.728 174.858 86.35 174.39 86.098C173.934 85.834 173.442 85.702 172.914 85.702C172.398 85.702 171.906 85.834 171.438 86.098C170.982 86.362 170.61 86.746 170.322 87.25C170.046 87.754 169.908 88.348 169.908 89.032C169.908 89.716 170.046 90.316 170.322 90.832C170.61 91.336 170.982 91.72 171.438 91.984C171.906 92.248 172.398 92.38 172.914 92.38C173.442 92.38 173.934 92.248 174.39 91.984C174.858 91.708 175.23 91.312 175.506 90.796C175.794 90.28 175.938 89.68 175.938 88.996ZM189.037 84.082V94H186.985V92.83C186.661 93.238 186.235 93.562 185.707 93.802C185.191 94.03 184.639 94.144 184.051 94.144C183.271 94.144 182.569 93.982 181.945 93.658C181.333 93.334 180.847 92.854 180.487 92.218C180.139 91.582 179.965 90.814 179.965 89.914V84.082H181.999V89.608C181.999 90.496 182.221 91.18 182.665 91.66C183.109 92.128 183.715 92.362 184.483 92.362C185.251 92.362 185.857 92.128 186.301 91.66C186.757 91.18 186.985 90.496 186.985 89.608V84.082H189.037ZM193.797 85.522C194.097 85.018 194.493 84.628 194.985 84.352C195.489 84.064 196.083 83.92 196.767 83.92V86.044H196.245C195.441 86.044 194.829 86.248 194.409 86.656C194.001 87.064 193.797 87.772 193.797 88.78V94H191.745V84.082H193.797V85.522ZM201.047 85.756V91.246C201.047 91.618 201.131 91.888 201.299 92.056C201.479 92.212 201.779 92.29 202.199 92.29H203.459V94H201.839C200.915 94 200.207 93.784 199.715 93.352C199.223 92.92 198.977 92.218 198.977 91.246V85.756H197.807V84.082H198.977V81.616H201.047V84.082H203.459V85.756H201.047ZM217.356 83.92C218.136 83.92 218.832 84.082 219.444 84.406C220.068 84.73 220.554 85.21 220.902 85.846C221.262 86.482 221.442 87.25 221.442 88.15V94H219.408V88.456C219.408 87.568 219.186 86.89 218.742 86.422C218.298 85.942 217.692 85.702 216.924 85.702C216.156 85.702 215.544 85.942 215.088 86.422C214.644 86.89 214.422 87.568 214.422 88.456V94H212.388V88.456C212.388 87.568 212.166 86.89 211.722 86.422C211.278 85.942 210.672 85.702 209.904 85.702C209.136 85.702 208.524 85.942 208.068 86.422C207.624 86.89 207.402 87.568 207.402 88.456V94H205.35V84.082H207.402V85.216C207.738 84.808 208.164 84.49 208.68 84.262C209.196 84.034 209.748 83.92 210.336 83.92C211.128 83.92 211.836 84.088 212.46 84.424C213.084 84.76 213.564 85.246 213.9 85.882C214.2 85.282 214.668 84.808 215.304 84.46C215.94 84.1 216.624 83.92 217.356 83.92ZM223.369 88.996C223.369 88 223.573 87.118 223.981 86.35C224.401 85.582 224.965 84.988 225.673 84.568C226.393 84.136 227.185 83.92 228.049 83.92C228.829 83.92 229.507 84.076 230.083 84.388C230.671 84.688 231.139 85.066 231.487 85.522V84.082H233.557V94H231.487V92.524C231.139 92.992 230.665 93.382 230.065 93.694C229.465 94.006 228.781 94.162 228.013 94.162C227.161 94.162 226.381 93.946 225.673 93.514C224.965 93.07 224.401 92.458 223.981 91.678C223.573 90.886 223.369 89.992 223.369 88.996ZM231.487 89.032C231.487 88.348 231.343 87.754 231.055 87.25C230.779 86.746 230.413 86.362 229.957 86.098C229.501 85.834 229.009 85.702 228.481 85.702C227.953 85.702 227.461 85.834 227.005 86.098C226.549 86.35 226.177 86.728 225.889 87.232C225.613 87.724 225.475 88.312 225.475 88.996C225.475 89.68 225.613 90.28 225.889 90.796C226.177 91.312 226.549 91.708 227.005 91.984C227.473 92.248 227.965 92.38 228.481 92.38C229.009 92.38 229.501 92.248 229.957 91.984C230.413 91.72 230.779 91.336 231.055 90.832C231.343 90.316 231.487 89.716 231.487 89.032Z"
            fill="white" />
        <path
            d="M194.974 59.5302L192.552 29.1437C192.402 27.1859 190.739 25.6529 188.767 25.6529H183.983V32.7105C183.983 33.5845 183.273 34.292 182.395 34.292C181.518 34.292 180.807 33.5845 180.807 32.7105V25.6529H166.194V32.7105C166.194 33.5845 165.483 34.292 164.606 34.292C163.728 34.292 163.018 33.5845 163.018 32.7105V25.6529H158.234C156.262 25.6529 154.599 27.1859 154.448 29.1395L152.026 59.5344C151.838 61.9688 152.686 64.3916 154.352 66.1819C156.018 67.972 158.379 69 160.83 69H186.171C188.622 69 190.983 67.972 192.649 66.1818C194.315 64.3915 195.163 61.9687 194.974 59.5302ZM180.656 44.0559L172.442 52.2353C172.294 52.3825 172.119 52.4992 171.926 52.5788C171.733 52.6585 171.527 52.6993 171.318 52.6992C171.109 52.6994 170.903 52.6585 170.71 52.5789C170.517 52.4993 170.342 52.3825 170.195 52.2353L166.345 48.4018C165.724 47.784 165.724 46.7834 166.345 46.1656C166.965 45.5478 167.971 45.5478 168.591 46.1656L171.318 48.8805L178.41 41.8187C179.03 41.2019 180.036 41.2019 180.656 41.8187C181.277 42.4365 181.277 43.4381 180.656 44.0559ZM173.5 15C167.72 15 163.018 19.6832 163.018 25.4388V25.6528H166.194V25.4388C166.194 21.4271 169.472 18.1629 173.501 18.1629C177.53 18.1629 180.807 21.4271 180.807 25.4388V25.6528H183.983V25.4388C183.983 19.6832 179.281 15 173.5 15Z"
            fill="white" />
    </g>
    <defs>
        <linearGradient id="paint0_linear_21_275" x1="344" y1="0" x2="182.778" y2="239.196"
            gradientUnits="userSpaceOnUse">
            <stop stop-color="#33F427" stop-opacity="0.75" />
            <stop offset="1" stop-color="#33F427" />
        </linearGradient>
        <clipPath id="clip0_21_275">
            <rect width="344" height="116" rx="12" fill="white" />
        </clipPath>
    </defs>
</svg>
