<svg width="24" height="24" viewBox="0 0 24 24" fill="none" xmlns="http://www.w3.org/2000/svg">
    <path fill-rule="evenodd" clip-rule="evenodd"
        d="M15 3C15.1313 3 15.2614 3.02587 15.3827 3.07612C15.504 3.12638 15.6142 3.20003 15.7071 3.29289C15.8 3.38575 15.8736 3.49599 15.9239 3.61732C15.9741 3.73864 16 3.86868 16 4C16 4.13132 15.9741 4.26136 15.9239 4.38268C15.8736 4.50401 15.8 4.61425 15.7071 4.70711C15.6142 4.79997 15.504 4.87362 15.3827 4.92388C15.2614 4.97413 15.1313 5 15 5H6V18C6 18.2652 6.10536 18.5196 6.29289 18.7071C6.48043 18.8946 6.73478 19 7 19H15C15.2652 19 15.5196 19.1054 15.7071 19.2929C15.8946 19.4804 16 19.7348 16 20C16 20.2652 15.8946 20.5196 15.7071 20.7071C15.5196 20.8946 15.2652 21 15 21H7C6.20435 21 5.44129 20.6839 4.87868 20.1213C4.31607 19.5587 4 18.7956 4 18V4C4 3.73478 4.10536 3.48043 4.29289 3.29289C4.48043 3.10536 4.73478 3 5 3H15ZM16.707 8.293C16.5672 8.15325 16.3891 8.05806 16.1953 8.01946C16.0014 7.98087 15.8005 8.00058 15.6178 8.07613C15.4351 8.15168 15.279 8.27966 15.169 8.44392C15.0591 8.60817 15.0002 8.80133 15 8.999V10.999H9C8.73478 10.999 8.48043 11.1044 8.29289 11.2919C8.10536 11.4794 8 11.7338 8 11.999C8 12.2642 8.10536 12.5186 8.29289 12.7061C8.48043 12.8936 8.73478 12.999 9 12.999H15V14.999C15 15.1968 15.0587 15.39 15.1686 15.5545C15.2785 15.7189 15.4346 15.847 15.6173 15.9227C15.8 15.9983 16.0011 16.0182 16.195 15.9796C16.389 15.941 16.5671 15.8458 16.707 15.706L19.707 12.706C19.8945 12.5185 19.9998 12.2642 19.9998 11.999C19.9998 11.7338 19.8945 11.4795 19.707 11.292L16.707 8.293Z"
        fill="#3E495B" />
</svg>
