<svg width="17" height="15" viewBox="0 0 17 15" fill="none" xmlns="http://www.w3.org/2000/svg">
    <path fill-rule="evenodd" clip-rule="evenodd"
        d="M1.97724 0L0.878052 1.08126L15.0227 15L16.1219 13.9184L1.97724 0Z" fill="black"
        fill-opacity="0.6" />
    <path
        d="M3.20032 3.36632L4.23492 4.38437C3.10236 5.33326 2.20051 6.5144 1.61773 7.54781L1.61595 7.5513C3.23901 10.2216 5.81431 12.7453 9.06468 12.3625C9.94204 12.2591 10.7605 11.964 11.5083 11.5418L12.5557 12.572C11.098 13.4926 9.42705 13.9802 7.6166 13.7392C4.35204 13.3047 1.68268 10.67 0 7.57575C0.790054 6.01149 1.87079 4.51498 3.20032 3.36632ZM5.55345 1.85759C6.4663 1.45736 7.45405 1.22197 8.50887 1.2052C8.56744 1.20485 9.26273 1.23733 9.5779 1.28832C9.77559 1.32045 9.97257 1.36062 10.1667 1.41056C13.2634 2.20439 15.5576 4.78041 17 7.43431C16.3949 8.63675 15.6023 9.81021 14.6572 10.8157L13.6538 9.82837C14.3519 9.08797 14.934 8.26376 15.3823 7.46434C15.3823 7.46434 14.9315 6.75119 14.5897 6.30346C14.37 6.01568 14.139 5.73629 13.8962 5.46702C13.7046 5.25468 12.9603 4.53349 12.7832 4.38332C11.5949 3.37785 10.1997 2.58891 8.52626 2.60218C7.87818 2.6123 7.25494 2.73803 6.66328 2.94967L5.55345 1.85759Z"
        fill="black" fill-opacity="0.6" />
    <path fill-rule="evenodd" clip-rule="evenodd"
        d="M6.01662 6.13796L6.8153 6.92354L9.88952 9.94856C9.47852 10.1756 9.00434 10.3048 8.5 10.3048C6.92948 10.3048 5.6546 9.0503 5.6546 7.5049C5.6546 7.00863 5.78628 6.54239 6.01662 6.13796ZM8.44747 4.70572C8.46487 4.70537 8.48261 4.70502 8.5 4.70502C10.0705 4.70502 11.3454 5.95985 11.3454 7.5049C11.3454 7.52236 11.3454 7.53948 11.345 7.55659L8.44747 4.70572Z"
        fill="black" fill-opacity="0.6" />
</svg>
