<svg width="24" height="24" viewBox="0 0 24 24" fill="none" xmlns="http://www.w3.org/2000/svg">
    <path
        d="M10.1678 3.30622L10.1683 3.30579C11.1783 2.49461 12.8147 2.49778 13.8433 3.31715C13.8435 3.31726 13.8436 3.31736 13.8437 3.31746L20.3877 8.55258C20.3884 8.55319 20.3892 8.5538 20.3899 8.55442C20.7341 8.83589 21.0425 9.28617 21.2436 9.81238C21.4444 10.338 21.5154 10.8798 21.4487 11.3195L20.1903 18.8503C20.1902 18.8509 20.19 18.8516 20.1899 18.8523C19.9564 20.1904 18.6445 21.3 17.3 21.3H6.69996C5.3337 21.3 4.05352 20.2187 3.82012 18.8631C3.82004 18.8626 3.81996 18.8621 3.81988 18.8616L2.56039 11.3246L2.56012 11.323C2.48512 10.8805 2.55134 10.3381 2.75152 9.81319C2.95168 9.28831 3.26369 8.83872 3.61654 8.5572L3.61776 8.55622L10.1678 3.30622ZM12 19.45C12.7966 19.45 13.45 18.7966 13.45 18V15C13.45 14.2034 12.7966 13.55 12 13.55C11.2034 13.55 10.55 14.2034 10.55 15V18C10.55 18.7966 11.2034 19.45 12 19.45Z"
        stroke="#AAAAAA" stroke-width="1.4" />
</svg>
