<svg width="171" height="136" viewBox="0 0 171 136" fill="none" xmlns="http://www.w3.org/2000/svg">
    <g clip-path="url(#clip0_30_1017)">
        <path
            d="M108.08 81.5392C113.963 89.5365 119.705 97.1715 125.252 104.949C127.844 108.585 127.825 112.642 125.937 116.628C124.735 119.151 123.248 121.539 122.038 124.056C120.06 128.171 120.959 130.96 125.2 132.616C133.159 135.722 141.493 136.654 149.949 135.566C151.455 135.372 153.531 133.884 153.945 132.558C154.365 131.218 153.473 128.941 152.393 127.776C150.596 125.835 148.197 124.444 146.051 122.833C142.579 120.232 141.893 118.394 142.967 114.188C143.393 112.519 143.923 110.876 144.441 109.232C147.253 100.245 145.773 91.8141 140.258 84.3991C136.56 79.4169 132.027 75.0559 127.825 70.4555C126.849 69.3879 125.678 68.495 123.855 66.8515C126.092 66.748 127.321 66.6445 128.543 66.6445C140.497 66.6315 152.451 66.6574 164.405 66.6251C168.517 66.6121 170.942 64.6904 171.006 61.5523C171.071 58.2913 168.576 56.3113 164.308 56.2337C163.985 56.2272 163.662 56.2337 163.339 56.2337C125.859 56.2337 88.3803 56.2337 50.9011 56.2531C49.7244 56.2531 48.4896 56.2078 47.3775 56.5249C45.0242 57.1978 43.3432 58.6989 43.3173 61.3258C43.285 64.0822 44.9401 65.7192 47.4616 66.4051C48.5736 66.7092 49.8085 66.6251 50.9916 66.6315C61.1162 66.6509 71.2409 66.6445 81.3655 66.6574C82.5874 66.6574 83.8029 66.7674 85.8912 66.8645C82.8654 71.2125 80.3246 74.9006 77.7449 78.5628C74.4929 83.1826 70.3099 85.5831 64.4652 84.3085C62.5839 83.8944 60.6249 83.7585 58.6918 83.6679C53.9721 83.4479 49.2331 83.0079 44.5393 83.2732C40.9317 83.4803 39.9037 85.1432 40.9769 88.553C42.7225 94.0787 44.6039 99.5979 46.9702 104.878C48.6253 108.566 51.0498 111.943 53.4096 115.256C54.082 116.194 56.0475 117.145 56.8944 116.796C58 116.343 59.0861 114.687 59.2801 113.406C59.6292 111.102 59.3641 108.695 59.2478 106.334C59.0086 101.526 59.1185 101.3 63.8898 101.565C75.4239 102.212 85.8524 99.5655 94.8132 91.8852C98.7894 88.4689 103.089 85.4084 108.08 81.5392ZM98.867 9.2267C86.9256 9.2267 74.9842 9.2267 63.0429 9.2267C62.0731 9.2267 61.1033 9.20729 60.14 9.26552C57.8901 9.4014 56.3578 10.5531 56.3837 12.8501C56.4095 15.1276 57.9612 16.2729 60.1917 16.4347C60.9417 16.4929 61.6981 16.4735 62.4545 16.4735C67.5169 16.4799 72.5792 16.467 77.635 16.4864C81.4301 16.4994 83.2598 17.7675 83.2145 20.3233C83.1693 22.8856 81.456 24.0373 77.538 24.0632C73.6589 24.0891 69.7862 24.0697 65.907 24.0697C60.5214 24.0697 55.1359 24.0308 49.7567 24.0697C47.3452 24.0891 45.7677 25.3702 45.8259 27.803C45.8776 30.0806 47.4099 31.2194 49.7115 31.2129C50.4679 31.2129 51.2179 31.2194 51.9743 31.2194C65.3251 31.2258 78.6824 31.2258 92.0332 31.2388C92.9965 31.2388 93.9857 31.1935 94.9296 31.3747C97.1149 31.7952 98.395 33.1022 98.214 35.4316C98.0459 37.5991 96.714 38.6797 94.5999 38.8155C93.74 38.8738 92.8801 38.8479 92.0138 38.8479C76.5101 38.8544 60.9999 38.8479 45.4961 38.8544C41.4812 38.8544 39.4058 40.1484 39.6709 42.7107C40.0524 46.3923 42.9553 46.0688 45.5543 46.0947C49.5369 46.14 53.5195 46.1853 57.5021 46.2176C63.1981 46.2564 64.2454 47.5052 63.03 52.9856C96.9144 52.9856 130.773 52.9856 164.716 52.9856C164.671 52.3127 164.696 51.8727 164.593 51.4651C164.36 50.5269 164.121 49.5822 163.778 48.6763C156.091 28.2042 141.674 15.2053 120.467 9.89314C118.431 9.38199 117.442 8.67672 116.944 6.54798C116.052 2.73695 112.935 0.427042 108.998 0.077644C103.522 -0.407631 99.7204 1.24878 97.936 4.89804C97.1601 6.46387 96.6041 7.97793 98.867 9.2267ZM19.5251 31.1935C19.5251 31.2 19.5251 31.2129 19.5251 31.2194C24.3676 31.2194 29.2166 31.2064 34.0591 31.2258C36.6064 31.2388 38.727 30.5723 38.6365 27.5572C38.5589 24.8267 36.6322 24.0373 34.1754 24.0438C24.2706 24.0697 14.3594 24.0761 4.45458 24.0502C1.95899 24.0438 0.0517326 24.9561 1.04114e-05 27.6025C-0.0517118 30.2812 1.81675 31.2323 4.33821 31.2064C9.40052 31.1611 14.4628 31.1935 19.5251 31.1935ZM21.6393 38.8673C21.6393 38.8608 21.6393 38.8608 21.6393 38.8544C18.8527 38.8544 16.0662 38.822 13.2797 38.8608C10.9393 38.8932 9.1613 40.019 9.11605 42.4066C9.07079 44.7683 10.6871 46.0753 13.1051 46.0817C18.6782 46.0947 24.2512 46.1076 29.8178 46.0429C32.0096 46.017 33.6194 45.0465 33.5936 42.6072C33.5677 40.129 32.0354 38.9385 29.6691 38.8738C26.9925 38.8155 24.3159 38.8673 21.6393 38.8673ZM18.8269 9.27199C16.7839 9.27199 14.5986 8.81907 12.7495 9.42081C11.3336 9.8802 9.6268 11.5043 9.33586 12.8824C8.92855 14.8106 10.5449 16.2988 12.6913 16.357C16.661 16.4605 20.6436 16.4799 24.6133 16.3764C26.8568 16.3182 28.292 15.0824 28.1821 12.6948C28.0722 10.3331 26.5529 9.31728 24.3159 9.27846C22.4798 9.24611 20.6501 9.26552 18.8269 9.27199ZM41.8368 9.26552C41.8368 9.25905 41.8368 9.24611 41.8368 9.23964C40.3433 9.23964 38.8369 9.16847 37.3499 9.25258C35.087 9.38199 33.7423 10.6372 33.7164 12.9148C33.6905 15.1082 35.1194 16.3052 37.1559 16.3958C40.2463 16.5317 43.4014 16.6935 46.4271 16.1953C47.6361 15.9947 49.1555 14.2089 49.4852 12.8889C50.0024 10.8055 48.3603 9.55022 46.3237 9.29787C44.8496 9.1167 43.3367 9.26552 41.8368 9.26552ZM27.1154 57.5731C25.8288 57.5731 24.3094 57.1395 23.3202 57.6831C22.0143 58.3948 20.288 59.8636 20.2751 61.0217C20.2622 62.1993 21.9496 64.1534 23.1845 64.4251C25.6284 64.9622 28.3696 64.9622 30.807 64.4122C32.0225 64.1404 33.6388 62.1476 33.6259 60.9441C33.613 59.8118 31.8673 58.4142 30.5743 57.6701C29.7079 57.1589 28.292 57.5731 27.1154 57.5731Z"
            fill="white" />
        <path
            d="M108.08 81.5392C103.089 85.4084 98.7894 88.4689 94.7938 91.8917C85.833 99.572 75.4045 102.212 63.8704 101.571C59.0991 101.306 58.9956 101.533 59.2284 106.34C59.3448 108.702 59.6034 111.109 59.2607 113.412C59.0667 114.687 57.9806 116.343 56.875 116.803C56.0281 117.152 54.0626 116.201 53.3902 115.263C51.0239 111.95 48.5995 108.572 46.9508 104.884C44.5845 99.6044 42.7031 94.0852 40.9575 88.5595C39.8778 85.1496 40.9123 83.4867 44.5199 83.2797C49.2137 83.0144 53.9527 83.4544 58.6724 83.6744C60.6055 83.765 62.5645 83.9073 64.4459 84.3149C70.2905 85.5896 74.48 83.1891 77.7255 78.5693C80.3052 74.9071 82.846 71.219 85.8718 66.8709C83.79 66.7739 82.568 66.6639 81.3461 66.6639C71.2215 66.6445 61.0968 66.6574 50.9722 66.638C49.7891 66.638 48.5542 66.7156 47.4422 66.4115C44.9272 65.7257 43.2721 64.0951 43.2979 61.3323C43.3303 58.6989 45.0048 57.2042 47.3581 56.5313C48.4702 56.2143 49.705 56.2596 50.8817 56.2596C88.3609 56.2466 125.84 56.2466 163.319 56.2402C163.643 56.2402 163.966 56.2402 164.289 56.2402C168.556 56.3178 171.052 58.2977 170.987 61.5588C170.922 64.6969 168.504 66.6186 164.386 66.6315C152.432 66.6639 140.477 66.638 128.523 66.6509C127.295 66.6509 126.066 66.7545 123.836 66.858C125.659 68.5014 126.829 69.3944 127.806 70.462C132.008 75.0559 136.54 79.4234 140.238 84.4055C145.753 91.8205 147.234 100.251 144.421 109.239C143.904 110.882 143.374 112.526 142.947 114.195C141.874 118.401 142.559 120.238 146.031 122.839C148.184 124.45 150.576 125.842 152.374 127.783C153.453 128.947 154.345 131.225 153.925 132.564C153.511 133.891 151.436 135.379 149.93 135.573C141.473 136.66 133.146 135.728 125.181 132.622C120.939 130.966 120.034 128.177 122.019 124.062C123.235 121.545 124.722 119.158 125.918 116.634C127.812 112.655 127.825 108.592 125.232 104.955C119.705 97.1715 113.963 89.5365 108.08 81.5392Z"
            fill="black" />
        <path
            d="M98.867 9.2267C96.6041 7.97793 97.1601 6.46387 97.923 4.90452C99.7075 1.25525 103.509 -0.401161 108.985 0.0841147C112.922 0.433513 116.039 2.74989 116.931 6.55445C117.429 8.68319 118.418 9.38846 120.455 9.89962C141.661 15.2118 156.078 28.2171 163.765 48.6828C164.108 49.5887 164.341 50.5333 164.58 51.4715C164.683 51.8792 164.651 52.3191 164.703 52.9921C130.76 52.9921 96.9015 52.9921 63.017 52.9921C64.2325 47.5117 63.1787 46.2629 57.4892 46.2241C53.5066 46.1982 49.524 46.1464 45.5414 46.1011C42.9424 46.0753 40.0394 46.3923 39.658 42.7172C39.3929 40.1549 41.4683 38.8608 45.4832 38.8608C60.9869 38.8544 76.4971 38.8544 92.0008 38.8544C92.8607 38.8544 93.7271 38.8803 94.587 38.822C96.7011 38.6861 98.0329 37.6056 98.201 35.438C98.3821 33.1087 97.1019 31.8017 94.9167 31.3811C93.9792 31.2 92.99 31.2453 92.0202 31.2453C78.6695 31.2323 65.3122 31.2323 51.9614 31.2258C51.205 31.2258 50.455 31.2194 49.6986 31.2194C47.3969 31.2258 45.8647 30.0871 45.8129 27.8095C45.7547 25.3702 47.3323 24.0891 49.7438 24.0761C55.1294 24.0373 60.515 24.0697 65.8941 24.0761C69.7732 24.0761 73.6459 24.0955 77.5251 24.0697C81.4431 24.0438 83.1628 22.8921 83.2016 20.3298C83.2469 17.774 81.4172 16.5058 77.6221 16.4929C72.5598 16.4799 67.4975 16.4864 62.4416 16.4799C61.6852 16.4799 60.9287 16.4994 60.1788 16.4411C57.9483 16.2794 56.3966 15.1341 56.3707 12.8566C56.3449 10.5596 57.8771 9.40787 60.1271 9.27199C61.0904 9.21376 62.0666 9.23317 63.03 9.23317C74.9842 9.2267 86.9256 9.2267 98.867 9.2267Z"
            fill="black" />
        <path
            d="M19.5251 31.1935C14.4628 31.1935 9.40052 31.1611 4.34467 31.2064C1.81675 31.2323 -0.0517118 30.2812 1.03955e-05 27.6025C0.0517326 24.9561 1.95899 24.0438 4.45458 24.0502C14.3594 24.0761 24.2706 24.0632 34.1754 24.0438C36.6387 24.0373 38.5589 24.8267 38.6365 27.5572C38.7205 30.5788 36.6064 31.2388 34.0591 31.2258C29.2166 31.2064 24.3676 31.2194 19.5251 31.2194C19.5251 31.2129 19.5251 31.2 19.5251 31.1935Z"
            fill="black" />
        <path
            d="M21.6393 38.8673C24.3159 38.8673 26.999 38.8091 29.6756 38.8867C32.0419 38.9514 33.5742 40.142 33.6 42.6201C33.6259 45.053 32.016 46.03 29.8243 46.0559C24.2512 46.1141 18.6782 46.1076 13.1116 46.0947C10.6936 46.0882 9.07725 44.7812 9.12251 42.4195C9.16777 40.0255 10.9457 38.9061 13.2861 38.8738C16.0727 38.835 18.8592 38.8673 21.6457 38.8673C21.6393 38.8608 21.6393 38.8673 21.6393 38.8673Z"
            fill="black" />
        <path
            d="M18.8269 9.27199C20.6566 9.27199 22.4798 9.24611 24.3094 9.27199C26.5529 9.31082 28.0658 10.3267 28.1757 12.6883C28.2856 15.0759 26.8503 16.3117 24.6068 16.37C20.6372 16.4735 16.6546 16.4541 12.6849 16.3505C10.5384 16.2923 8.92209 14.8106 9.3294 12.876C9.62033 11.4978 11.3272 9.87373 12.7431 9.41434C14.5986 8.82554 16.7839 9.27199 18.8269 9.27199Z"
            fill="black" />
        <path
            d="M41.8368 9.26552C43.3303 9.26552 44.8496 9.1167 46.3237 9.29787C48.3603 9.55022 50.0024 10.8055 49.4852 12.8889C49.1555 14.2153 47.6361 15.9947 46.4271 16.1953C43.4079 16.6935 40.2528 16.5252 37.1559 16.3958C35.1129 16.3052 33.6906 15.1082 33.7164 12.9148C33.7423 10.6372 35.087 9.38199 37.3499 9.25258C38.8434 9.16847 40.3433 9.23964 41.8368 9.23964C41.8368 9.24611 41.8368 9.25905 41.8368 9.26552Z"
            fill="black" />
        <path
            d="M27.1154 57.5731C28.292 57.5731 29.7079 57.1589 30.5872 57.6701C31.8803 58.4142 33.6259 59.8118 33.6388 60.9441C33.6518 62.1411 32.0354 64.134 30.82 64.4122C28.3761 64.9622 25.6413 64.9622 23.1974 64.4251C21.9625 64.1534 20.2751 62.1993 20.288 61.0217C20.301 59.8635 22.0207 58.3948 23.3332 57.683C24.3159 57.1395 25.8352 57.5731 27.1154 57.5731Z"
            fill="black" />
    </g>
    <defs>
        <clipPath id="clip0_30_1017">
            <rect width="171" height="136" fill="white" />
        </clipPath>
    </defs>
</svg>
