<svg width="20" height="20" viewBox="0 0 20 20" fill="none" xmlns="http://www.w3.org/2000/svg">
    <path
        d="M1.88889 14.8837H15.1111V8.40093C15.1111 4.78884 12.1512 1.86047 8.5 1.86047C4.84878 1.86047 1.88889 4.78884 1.88889 8.40093V14.8837ZM8.5 0C13.1939 0 17 3.76093 17 8.40093V16.7442H0V8.40093C0 3.76093 3.80611 0 8.5 0ZM6.13889 17.6744H10.8611C10.8611 18.2912 10.6124 18.8827 10.1696 19.3189C9.72676 19.755 9.12621 20 8.5 20C7.87379 20 7.27324 19.755 6.83044 19.3189C6.38765 18.8827 6.13889 18.2912 6.13889 17.6744Z"
        fill="#1C1C25" />
    <circle cx="15.5" cy="4.5" r="4.5" fill="#F4B459" />
</svg>
