<svg width="36" height="44" viewBox="0 0 36 44" fill="none" xmlns="http://www.w3.org/2000/svg">
    <path fill-rule="evenodd" clip-rule="evenodd"
        d="M18 4.66634C14.4102 4.66634 11.5 7.57649 11.5 11.1663C11.5 14.7562 14.4102 17.6663 18 17.6663C21.5899 17.6663 24.5 14.7562 24.5 11.1663C24.5 7.57649 21.5899 4.66634 18 4.66634ZM7.16667 11.1663C7.16667 5.18326 12.0169 0.333008 18 0.333008C23.9831 0.333008 28.8333 5.18326 28.8333 11.1663C28.8333 17.1494 23.9831 21.9997 18 21.9997C12.0169 21.9997 7.16667 17.1494 7.16667 11.1663ZM5.17975 39.333H30.8203C29.7888 33.1846 24.4415 28.4997 18 28.4997C11.5585 28.4997 6.21125 33.1846 5.17975 39.333ZM0.666672 41.4997C0.666672 31.9267 8.42707 24.1663 18 24.1663C27.5729 24.1663 35.3333 31.9267 35.3333 41.4997C35.3333 42.6963 34.3633 43.6663 33.1667 43.6663H2.83334C1.63672 43.6663 0.666672 42.6963 0.666672 41.4997Z"
        fill="#787F95" />
</svg>
