<svg width="22" height="22" viewBox="0 0 22 22" fill="none" xmlns="http://www.w3.org/2000/svg">
    <path fill-rule="evenodd" clip-rule="evenodd"
        d="M1.14551 6.435C1.14551 4.0425 3.02834 2.0625 5.39792 2.0625H16.6005C18.9701 2.0625 20.8529 4.0425 20.8529 6.435C20.8529 8.294 19.7199 9.9 18.1029 10.5279V14.7143C18.1029 14.9985 18.102 15.2668 18.1002 15.5192C18.1033 15.569 18.1024 15.6189 18.0974 15.6686C18.0949 16.0365 18.0723 16.404 18.0296 16.7695C17.9526 17.3452 17.7821 17.8649 17.3641 18.282C16.947 18.7 16.4273 18.8705 15.8516 18.9475C15.3071 19.0208 14.6196 19.0208 13.7964 19.0208H8.20201C7.37884 19.0208 6.69134 19.0208 6.14684 18.9475C5.57117 18.8705 5.05142 18.7 4.63434 18.282C4.21634 17.8649 4.04584 17.3452 3.96884 16.7695C3.92616 16.404 3.90352 16.0365 3.90101 15.6686C3.89603 15.6189 3.89511 15.569 3.89826 15.5192C3.89581 15.2668 3.8949 14.9985 3.89551 14.7143V10.5279C2.27851 9.9 1.14551 8.294 1.14551 6.435ZM3.89551 8.9925C3.89551 8.22433 3.89917 7.58083 3.96884 7.06383C4.04584 6.48817 4.21634 5.96842 4.63342 5.55133C5.05142 5.13333 5.57117 4.96283 6.14592 4.88583C6.69134 4.8125 7.37884 4.8125 8.20201 4.8125H13.7973C14.6214 4.8125 15.308 4.8125 15.8525 4.88583C16.4282 4.96283 16.9479 5.13333 17.365 5.55042C17.783 5.96842 17.9535 6.48817 18.0305 7.06292C18.1002 7.57992 18.1038 8.22433 18.1038 8.9925C18.9233 8.46817 19.4788 7.52583 19.4788 6.435C19.4788 4.7575 18.1689 3.4375 16.6014 3.4375H5.39884C3.83134 3.4375 2.52142 4.7575 2.52142 6.435C2.52142 7.52583 3.07601 8.46817 3.89551 8.9925ZM10.3131 6.1875H8.24967C7.36601 6.1875 6.77201 6.18933 6.32926 6.24892C5.90667 6.30575 5.72517 6.40383 5.60601 6.52392C5.48684 6.644 5.38876 6.82367 5.33101 7.24625C5.27326 7.689 5.27051 8.283 5.27051 9.16667V14.8958H16.7288V9.16667C16.7288 8.283 16.727 7.689 16.6674 7.24625C16.6106 6.82367 16.5125 6.64217 16.3924 6.523C16.2723 6.40383 16.0927 6.30575 15.6701 6.248C15.2273 6.18933 14.6333 6.1875 13.7497 6.1875H11.6872V10.0586L12.3105 9.33075C12.3693 9.26213 12.4409 9.20576 12.5215 9.16485C12.602 9.12394 12.6898 9.09929 12.7799 9.09231C12.8699 9.08533 12.9605 9.09615 13.0463 9.12417C13.1322 9.15218 13.2117 9.19684 13.2803 9.25558C13.349 9.31433 13.4053 9.38601 13.4462 9.46654C13.4872 9.54707 13.5118 9.63488 13.5188 9.72493C13.5258 9.81499 13.5149 9.90554 13.4869 9.99141C13.4589 10.0773 13.4143 10.1568 13.3555 10.2254L11.5222 12.364C11.4576 12.4395 11.3775 12.5001 11.2873 12.5416C11.1971 12.5832 11.099 12.6047 10.9997 12.6047C10.9004 12.6047 10.8022 12.5832 10.712 12.5416C10.6218 12.5001 10.5417 12.4395 10.4772 12.364L8.64384 10.2254C8.5252 10.0868 8.46647 9.90681 8.48056 9.72493C8.49466 9.54305 8.58043 9.37422 8.71901 9.25558C8.85758 9.13694 9.03761 9.07821 9.21949 9.09231C9.40137 9.1064 9.5702 9.19217 9.68884 9.33075L10.3122 10.0586L10.3131 6.1875ZM16.7004 16.2708H5.29984C5.30779 16.3839 5.31848 16.4893 5.33192 16.5871C5.38876 17.0097 5.48684 17.1912 5.60692 17.3103C5.72701 17.4295 5.90667 17.5276 6.32926 17.5853C6.77201 17.644 7.36601 17.6458 8.24967 17.6458H13.7497C14.6333 17.6458 15.2273 17.644 15.6701 17.5844C16.0927 17.5276 16.2742 17.4295 16.3933 17.3094C16.5125 17.1893 16.6106 17.0097 16.6683 16.5871C16.6806 16.4893 16.6919 16.3839 16.7004 16.2708Z"
        fill="#2F2F3F" />
</svg>
