<svg width="30" height="30" viewBox="0 0 30 30" fill="none" xmlns="http://www.w3.org/2000/svg">
    <path d="M15.4523 1C9.25088 1 3.95583 4.78 2 10H29C26.9965 4.78 21.7014 1 15.4523 1Z"
        fill="#F9F9F9" />
    <path d="M14.977 29C21.0053 29 26.1133 25.22 28 20H2C3.88673 25.265 8.99469 29 14.977 29Z"
        fill="#ED4C5C" />
    <path
        d="M1.79333 10C1.28 11.395 1 12.925 1 14.5C1 16.075 1.28 17.605 1.79333 19H28.2067C28.72 17.605 29 16.075 29 14.5C29 12.925 28.72 11.395 28.2067 10H1.79333Z"
        fill="#428BC1" />
</svg>
