<svg width="24" height="24" viewBox="0 0 24 24" fill="none" xmlns="http://www.w3.org/2000/svg">
    <path fill-rule="evenodd" clip-rule="evenodd"
        d="M4 11.5C4 15.6341 7.36585 19 11.5 19C15.6341 19 19 15.6341 19 11.5C19 7.36585 15.6341 4 11.5 4C7.36585 4 4 7.36585 4 11.5ZM5.09756 11.5C5.09756 7.97317 7.96585 5.09756 11.5 5.09756C15.0341 5.09756 17.9024 7.97317 17.9024 11.5C17.9024 15.0268 15.0341 17.9024 11.5 17.9024C7.96585 17.9024 5.09756 15.0268 5.09756 11.5ZM18.9034 19.8113C19.0322 19.94 19.1953 20 19.3584 20C19.5215 20 19.6845 19.94 19.8133 19.8113C20.0622 19.5625 20.0622 19.1508 19.8133 18.9021L18.0966 17.1866C17.8476 16.9378 17.4356 16.9378 17.1867 17.1866C16.9378 17.4353 16.9378 17.847 17.1867 18.0958L18.9034 19.8113Z"
        fill="#AAAAAA" />
</svg>
