<svg width="24" height="24" viewBox="0 0 24 24" fill="none" xmlns="http://www.w3.org/2000/svg">
    <g clip-path="url(#clip0_26_514)">
        <path
            d="M22.5988 10.0889L22.5947 10.0884L20.7147 9.84941L20.2743 9.79342L20.1372 9.37111C19.9953 8.93385 19.8191 8.50846 19.6103 8.09888L19.4084 7.70279L19.6811 7.35165L20.8421 5.85665L20.8458 5.85195L20.8458 5.85197C20.9658 5.70015 21.0256 5.5094 21.0136 5.31625C21.0017 5.1231 20.919 4.94114 20.7813 4.8052L20.778 4.80199L20.778 4.80197L19.203 3.22697L19.1984 3.22237L19.1984 3.22235C19.0621 3.08346 18.8793 2.99978 18.6851 2.98736C18.4909 2.97493 18.2989 3.03463 18.146 3.15501L18.1427 3.1576L16.6497 4.31859L16.2985 4.59172L15.9021 4.38963C15.4924 4.18076 15.0668 4.00465 14.6293 3.86293L14.2067 3.72605L14.1506 3.28542L13.9116 1.40842L13.9109 1.40318L13.911 1.40318C13.8878 1.20946 13.7944 1.03095 13.6486 0.901389C13.5028 0.771885 13.3146 0.700247 13.1196 0.7H10.88C10.4769 0.7 10.1367 1.00262 10.089 1.4004L10.0884 1.40528L10.0884 1.40528L9.84941 3.28528L9.79332 3.72647L9.37009 3.86313C8.93287 4.00431 8.50765 4.18028 8.09851 4.38934L7.70204 4.59193L7.35047 4.31873L5.85647 3.15773L5.85262 3.15473L5.85263 3.15472C5.70053 3.03481 5.5096 2.97512 5.31629 2.98704C5.12298 2.99895 4.94083 3.08164 4.80461 3.21933L4.80183 3.22214L4.80182 3.22213L3.22682 4.79613L3.22216 4.80078L3.22214 4.80076C3.08311 4.93712 2.99934 5.12002 2.98691 5.31436C2.97448 5.5087 3.03427 5.70079 3.15481 5.85374L3.15774 5.85746L3.15773 5.85747L4.31873 7.35147L4.59191 7.70301L4.38936 8.09946C4.18041 8.50848 4.0044 8.9335 3.86301 9.37049L3.72622 9.79327L3.28542 9.84939L1.40842 10.0884L1.40308 10.0891L1.40307 10.0891C1.00176 10.137 0.7 10.4777 0.7 10.88V13.12C0.7 13.5231 1.00262 13.8633 1.4004 13.911L1.40528 13.9116L1.40528 13.9116L3.28528 14.1506L3.72557 14.2066L3.86273 14.6287C4.00641 15.0708 4.18331 15.4967 4.38951 15.9008L4.59169 16.297L4.31887 16.6483L3.15787 18.1433L3.15422 18.148L3.1542 18.148C3.03421 18.2999 2.97445 18.4906 2.98635 18.6838C2.99826 18.8769 3.081 19.0589 3.21873 19.1948L3.22199 19.198L3.22197 19.198L4.79697 20.773L4.80071 20.7768C4.93739 20.9156 5.1204 20.9991 5.31478 21.0114C5.50917 21.0238 5.70128 20.964 5.85441 20.8437L5.85747 20.8413L7.35147 19.6803L7.70353 19.4067L8.10031 19.6101C8.50368 19.8168 8.92881 19.9934 9.37006 20.1359L9.79319 20.2725L9.84939 20.7135L10.0884 22.5895L10.0891 22.5951L10.0891 22.5951C10.1372 22.9988 10.4783 23.3 10.88 23.3H13.12C13.5231 23.3 13.8633 22.9974 13.911 22.5996L13.9116 22.5947L13.9116 22.5947L14.1506 20.7147L14.2066 20.2743L14.6289 20.1372C15.0661 19.9953 15.4915 19.8191 15.9011 19.6103L16.2972 19.4084L16.6483 19.6811L18.1433 20.8421L18.1434 20.8422C18.4744 21.0994 18.9256 21.0592 19.1901 20.7861L19.198 20.778L19.198 20.778L20.773 19.203L20.7776 19.1984L20.7776 19.1984C20.9165 19.0621 21.0002 18.8793 21.0126 18.6851C21.0251 18.4909 20.9654 18.2989 20.845 18.146L20.8423 18.1425L19.6813 16.6485L19.4077 16.2965L19.6111 15.8997C19.8178 15.4963 19.9944 15.0712 20.1369 14.6299L20.2735 14.2068L20.7145 14.1506L22.5905 13.9116L22.5958 13.9109C22.7895 13.8878 22.968 13.7944 23.0976 13.6486C23.227 13.5029 23.2987 13.3149 23.299 13.12C23.299 13.1198 23.299 13.1196 23.299 13.1194M22.5988 10.0889L23.999 13.12L23.299 13.1194M22.5988 10.0889C22.792 10.1123 22.9699 10.2057 23.0989 10.3514C23.2279 10.4971 23.2991 10.685 23.299 10.8796V10.88L23.299 13.1194M22.5988 10.0889L23.299 13.1194M6.3 12C6.3 15.1436 8.8564 17.7 12 17.7C15.1436 17.7 17.7 15.1436 17.7 12C17.7 8.8564 15.1436 6.3 12 6.3C8.8564 6.3 6.3 8.8564 6.3 12Z"
            stroke="#AAAAAA" stroke-width="1.4" />
    </g>
    <defs>
        <clipPath id="clip0_26_514">
            <rect width="24" height="24" fill="white" />
        </clipPath>
    </defs>
</svg>
