<svg width="22" height="22" viewBox="0 0 22 22" fill="none" xmlns="http://www.w3.org/2000/svg">
    <path d="M5.87309 18.1111H17.1272L15.7908 8.66667H7.20952L5.87309 18.1111ZM11.5002 6.77778C11.7659 6.77778 11.9888 6.68711 12.1688 6.50578C12.3489 6.32444 12.4386 6.1003 12.438 5.83333C12.438 5.56574 12.348 5.34128 12.1679 5.15994C11.9878 4.97861 11.7652 4.88826 11.5002 4.88889C11.2344 4.88889 11.0115 4.97956 10.8315 5.16089C10.6514 5.34222 10.5617 5.56637 10.5623 5.83333C10.5623 6.10093 10.6523 6.32539 10.8324 6.50672C11.0125 6.68806 11.2351 6.77841 11.5002 6.77778ZM14.1496 6.77778H15.7908C16.2597 6.77778 16.6661 6.93518 17.01 7.25C17.3539 7.56481 17.5649 7.95046 17.643 8.40694L18.9794 17.8514C19.0576 18.4181 18.9129 18.918 18.5452 19.3512C18.1776 19.7843 17.7049 20.0006 17.1272 20H5.87309C5.29476 20 4.82177 19.7834 4.45414 19.3502C4.0865 18.917 3.94207 18.4174 4.02085 17.8514L5.35728 8.40694C5.43543 7.95046 5.64645 7.56481 5.99032 7.25C6.3342 6.93518 6.7406 6.77778 7.20952 6.77778H8.85074C8.80385 6.62037 8.76478 6.46706 8.73351 6.31783C8.70225 6.16861 8.68662 6.00711 8.68662 5.83333C8.68662 5.0463 8.96016 4.37731 9.50723 3.82639C10.0543 3.27546 10.7186 3 11.5002 3C12.2817 3 12.946 3.27546 13.4931 3.82639C14.0401 4.37731 14.3137 5.0463 14.3137 5.83333C14.3137 6.00648 14.298 6.16798 14.2668 6.31783C14.2355 6.46768 14.1964 6.621 14.1496 6.77778Z" fill="#2F2F3F"/>
</svg>
