<svg width="24" height="24" viewBox="0 0 24 24" fill="none" xmlns="http://www.w3.org/2000/svg">
    <path fill-rule="evenodd" clip-rule="evenodd"
        d="M11.6324 2.77661C13.8655 2.55996 15.75 4.31676 15.75 6.51011V7.2501H8.24999V6.70011C8.24999 4.79256 9.80823 2.94687 11.6297 2.77687L11.6324 2.77661ZM6.74999 7.31206V6.70011C6.74999 4.10811 8.81105 1.53423 11.4889 1.28348C14.6152 0.980976 17.25 3.44391 17.25 6.51011V7.31207C18.805 7.47751 19.9181 7.97525 20.6264 8.81733C21.5047 9.8615 21.5869 11.2338 21.4454 12.5126L21.4442 12.5231L21.4441 12.5231L20.6949 18.5168C20.5844 19.543 20.3255 20.667 19.4096 21.5038C18.4984 22.3362 17.0868 22.7501 14.9999 22.7501H8.99994C6.91309 22.7501 5.50147 22.3362 4.59033 21.5038C3.67438 20.667 3.41548 19.543 3.30493 18.5167L2.55573 12.5231L2.55442 12.5126L2.55449 12.5126C2.41299 11.2338 2.49521 9.8615 3.37348 8.81733C4.08178 7.97523 5.19493 7.47749 6.74999 7.31206ZM4.79415 18.3371L4.04482 12.3424C3.91729 11.1839 4.05037 10.3429 4.5214 9.78287C4.98599 9.23053 5.95298 8.7501 7.99994 8.7501H15.9999C18.0469 8.7501 19.0139 9.23053 19.4785 9.78288C19.9495 10.3429 20.0826 11.1838 19.9551 12.3423L19.2057 18.3371L19.2056 18.3371L19.2042 18.3502C19.1044 19.2821 18.8974 19.94 18.3978 20.3964C17.8915 20.859 16.9331 21.2501 14.9999 21.2501H8.99994C7.06679 21.2501 6.10841 20.859 5.60205 20.3964C5.10249 19.94 4.89552 19.2821 4.79567 18.3502L4.79579 18.3502L4.79415 18.3371ZM14.4955 12.0001C14.4955 11.4478 14.9432 11.0001 15.4955 11.0001H15.5045C16.0567 11.0001 16.5045 11.4478 16.5045 12.0001C16.5045 12.5524 16.0567 13.0001 15.5045 13.0001H15.4955C14.9432 13.0001 14.4955 12.5524 14.4955 12.0001ZM8.4945 11.0001C7.94221 11.0001 7.4945 11.4478 7.4945 12.0001C7.4945 12.5524 7.94221 13.0001 8.4945 13.0001H8.50348C9.05577 13.0001 9.50348 12.5524 9.50348 12.0001C9.50348 11.4478 9.05577 11.0001 8.50348 11.0001H8.4945Z"
        fill="#AAAAAA" />
</svg>
