<svg width="22" height="22" viewBox="0 0 22 22" fill="none" xmlns="http://www.w3.org/2000/svg">
    <path
        d="M10.9997 18.3333C12.9446 18.3333 14.8099 17.5606 16.1851 16.1854C17.5604 14.8101 18.333 12.9448 18.333 10.9999C18.333 9.055 17.5604 7.18974 16.1851 5.81447C14.8099 4.4392 12.9446 3.66659 10.9997 3.66659C9.05475 3.66659 7.18949 4.4392 5.81422 5.81447C4.43896 7.18974 3.66634 9.055 3.66634 10.9999C3.66634 12.9448 4.43896 14.8101 5.81422 16.1854C7.18949 17.5606 9.05475 18.3333 10.9997 18.3333ZM10.9997 1.83325C12.2035 1.83325 13.3955 2.07035 14.5076 2.53102C15.6198 2.99169 16.6303 3.6669 17.4815 4.51811C18.3327 5.36931 19.0079 6.37984 19.4686 7.49199C19.9292 8.60414 20.1663 9.79613 20.1663 10.9999C20.1663 13.4311 19.2006 15.7626 17.4815 17.4817C15.7624 19.2008 13.4308 20.1666 10.9997 20.1666C5.93051 20.1666 1.83301 16.0416 1.83301 10.9999C1.83301 8.56877 2.79878 6.23719 4.51786 4.51811C6.23695 2.79902 8.56852 1.83325 10.9997 1.83325ZM11.458 6.41659V11.2291L15.583 13.6766L14.8955 14.8041L10.083 11.9166V6.41659H11.458Z"
        fill="#2F2F3F" />
</svg>
