<svg width="30" height="30" viewBox="0 0 30 30" fill="none" xmlns="http://www.w3.org/2000/svg">
    <path d="M15 1C9.08244 1 4.05018 4.74211 2 10H28C25.9498 4.74211 20.9176 1 15 1Z"
        fill="#42ADE2" />
    <path d="M15 29C20.9176 29 25.9498 25.2579 28 20H2C4.05018 25.2579 9.08244 29 15 29Z"
        fill="#83BF4F" />
    <path
        d="M29 15C29 13.6222 28.7667 12.2444 28.3467 11H1.65333C1.23333 12.2444 1 13.6222 1 15C1 16.3778 1.23333 17.7556 1.65333 19H28.3467C28.7667 17.7556 29 16.3778 29 15Z"
        fill="white" />
    <path d="M29 10C29.0461 10.15 29.1382 10.35 29.1843 10.5C29.2304 10.65 29.2764 10.85 29.3225 11"
        fill="#C94747" />
    <path
        d="M28.8584 10.4545C28.8112 10.3182 28.7168 10.1364 28.6696 10H2.33042C2.28322 10.1364 2.18881 10.3182 2.14161 10.4545C2.09441 10.5909 2.0472 10.7727 2 10.9091H29C28.9528 10.7727 28.9056 10.5909 28.8584 10.4545ZM2.14161 19.5455C2.18881 19.6818 2.28322 19.8636 2.33042 20H28.6696C28.7168 19.8636 28.8112 19.6818 28.8584 19.5455C28.9056 19.4091 28.9528 19.2273 29 19.0909H2C2.0472 19.2273 2.09441 19.4091 2.14161 19.5455Z"
        fill="#C94747" />
    <path
        d="M10.058 8.65C8.91126 8.65 8.00341 7.7 8.00341 6.5C8.00341 5.3 8.91126 4.35 10.058 4.35C10.3447 4.35 10.5836 4.4 10.8225 4.5C10.4403 4.2 9.91468 4 9.38908 4C8.05119 4 7 5.1 7 6.5C7 7.9 8.05119 9 9.38908 9C9.91468 9 10.4403 8.8 10.8225 8.5C10.5836 8.6 10.3447 8.65 10.058 8.65ZM12.1126 7.6L12.3038 8.15H12.8294L12.3993 8.45L12.5427 9L12.1126 8.65L11.6826 9L11.8737 8.45L11.4437 8.15H11.9693L12.1126 7.6ZM14.1672 7.6L14.3106 8.15H14.884L14.4539 8.45L14.5973 9L14.1672 8.65L13.7372 9L13.8805 8.45L13.4505 8.15H13.9761L14.1672 7.6ZM16.2218 7.6L16.3652 8.15H16.8908L16.4608 8.45L16.6519 9L16.2218 8.65L15.744 9L15.9352 8.45L15.5051 8.15H16.0307L16.2218 7.6ZM18.2287 7.6L18.4198 8.15H18.9454L18.5154 8.45L18.6587 9L18.2287 8.65L17.7986 9L17.942 8.45L17.5119 8.15H18.0853L18.2287 7.6ZM20.2833 7.6L20.4266 8.15H21L20.5222 8.45L20.7133 9L20.2833 8.65L19.8532 9L19.9966 8.45L19.5666 8.15H20.0922L20.2833 7.6ZM14.1672 5.8L14.3106 6.35H14.884L14.4539 6.65L14.5973 7.2L14.1672 6.85L13.7372 7.2L13.8805 6.65L13.4505 6.35H13.9761L14.1672 5.8ZM16.2218 5.8L16.3652 6.35H16.8908L16.4608 6.65L16.6519 7.2L16.2218 6.85L15.744 7.2L15.9352 6.65L15.5051 6.35H16.0307L16.2218 5.8ZM18.2287 5.8L18.4198 6.35H18.9454L18.5154 6.65L18.6587 7.2L18.2287 6.85L17.7986 7.2L17.942 6.65L17.5119 6.35H18.0853L18.2287 5.8ZM20.2833 5.8L20.4266 6.35H21L20.5222 6.65L20.7133 7.2L20.2833 6.85L19.8532 7.2L19.9966 6.65L19.5666 6.35H20.0922L20.2833 5.8ZM16.2218 4L16.3652 4.55H16.8908L16.4608 4.85L16.6519 5.4L16.2218 5.05L15.744 5.4L15.9352 4.85L15.5051 4.55H16.0307L16.2218 4ZM18.2287 4L18.4198 4.55H18.9454L18.5154 4.85L18.6587 5.4L18.2287 5.05L17.7986 5.4L17.942 4.85L17.5119 4.55H18.0853L18.2287 4ZM20.2833 4L20.4266 4.55H21L20.5222 4.85L20.7133 5.4L20.2833 5.05L19.8532 5.4L19.9966 4.85L19.5666 4.55H20.0922L20.2833 4Z"
        fill="white" />
</svg>
